Coordinates
version=1
nRows=15
nColumns=42
inDegrees=yes

Units are S.I. units (second, meters, Newtons, ...)
If the header above contains a line with 'inDegrees', this indicates whether rotational values are in degrees (yes) or radians (no).

endheader
time	pelvis_tilt	pelvis_list	pelvis_rotation	pelvis_tx	pelvis_ty	pelvis_tz	hip_flexion_r	hip_adduction_r	hip_rotation_r	knee_angle_r	knee_adduction_r	knee_angle_r_beta	ankle_angle_r	subtalar_angle_r	mtp_angle_r	hip_flexion_l	hip_adduction_l	hip_rotation_l	knee_angle_l	knee_adduction_l	knee_angle_l_beta	ankle_angle_l	subtalar_angle_l	mtp_angle_l	lumbar_extension	lumbar_bending	lumbar_rotation	arm_flex_r	arm_add_r	arm_rot_r	elbow_flex_r	pro_sup_r	wrist_flex_r	wrist_dev_r	arm_flex_l	arm_add_l	arm_rot_l	elbow_flex_l	pro_sup_l	wrist_flex_l	wrist_dev_l
      2.98000000	     21.22473232	      1.42408119	      4.23879023	      0.85414656	      0.94135346	     -0.54901220	      5.75934050	     -5.78132274	    -27.86386658	     54.16303750	    -18.12130264	      0.94532334	     14.51641881	     18.12341817	     -7.50147288	    -14.82239341	      7.07499218	     -2.07500939	     22.99375582	     -2.74574512	      0.40131675	     20.58454140	     -7.24936206	     -7.50147288	    -35.89041046	     -3.14510589	      2.76237466	     12.11793800	    -11.71856276	    -17.42727789	     31.54156975	     90.00000001	      0.00000000	      0.00000000	      1.64624311	    -21.62062244	      7.32271767	     69.22180138	     90.00000001	      0.00000000	      0.00000000
      2.99000000	     21.37134068	      1.13399879	      3.99119787	      0.85811627	      0.94197898	     -0.54983161	      6.06807179	     -4.91926254	    -27.49853434	     52.22126813	    -18.03237357	      0.91143307	     14.23247803	     20.21280211	     -7.50143677	    -15.53980885	      6.87930796	     -2.14556985	     22.30987593	     -2.68751896	      0.38938079	     20.75363416	     -7.37452822	     -7.50143677	    -36.06194589	     -2.99112255	      3.00053115	     11.94636365	    -11.77971138	    -17.76380100	     31.00125707	     90.00000001	      0.00000000	      0.00000000	      1.64168075	    -21.49362033	      7.02805579	     68.79828219	     90.00000001	      0.00000000	      0.00000000
      3.00000000	     21.28016360	      1.11358037	      3.93060358	      0.86203124	      0.94193736	     -0.55111686	      6.68006196	     -4.59854534	    -27.97019807	     50.50679020	    -18.22239874	      0.88150978	     14.18610041	     22.59329750	     -7.50134943	    -15.88538362	      7.01734365	     -2.06500059	     21.93944020	     -2.78718486	      0.38291547	     20.82301855	     -7.43426648	     -7.50134943	    -36.03088845	     -3.01259167	      2.92558886	     11.66094081	    -11.71894159	    -18.48717752	     30.85922746	     90.00000001	      0.00000000	      0.00000000	      1.52481055	    -21.52237189	      6.86481854	     68.79014932	     90.00000001	      0.00000000	      0.00000000
      3.01000000	     20.92071847	      1.18393531	      3.84940080	      0.86571219	      0.94132836	     -0.55240225	      7.63104986	     -4.46613710	    -27.48108006	     49.36257692	    -17.53602817	      0.86153949	     14.13820141	     22.48362532	     -7.50133008	    -15.74734464	      7.25164544	     -2.25052472	     21.96343788	     -2.87289894	      0.38333431	     20.94223863	     -7.26623586	     -7.50133008	    -35.74259358	     -3.13668244	      2.82996023	     11.23194965	    -11.74546992	    -18.48968833	     30.87606366	     90.00000001	      0.00000000	      0.00000000	      1.44403255	    -21.58670534	      6.80275676	     68.79665839	     90.00000001	      0.00000000	      0.00000000
      3.02000000	     21.10475921	      0.92857980	      3.64659147	      0.86978930	      0.94185954	     -0.55309268	      7.72653568	     -3.67468535	    -27.24969811	     47.29569906	    -17.35374426	      0.82546567	     13.82612733	     24.88719150	     -7.50127122	    -16.51779076	      7.06130649	     -2.33456096	     21.27447844	     -2.83087207	      0.37130970	     21.08011364	     -7.20295593	     -7.50127122	    -35.96399332	     -3.00897216	      3.01677333	     11.05741108	    -11.75051380	    -19.11128014	     30.44121997	     90.00000001	      0.00000000	      0.00000000	      1.37051791	    -21.50873920	      6.56705949	     68.63255808	     90.00000001	      0.00000000	      0.00000000
      3.03000000	     20.82080722	      0.93798769	      3.45591683	      0.87351414	      0.94135242	     -0.55407367	      8.49018676	     -3.36472123	    -26.60313666	     45.95847528	    -16.75007974	      0.80212671	     13.77361780	     25.20583763	     -7.50125056	    -16.52694943	      7.28640615	     -2.55495167	     21.12286897	     -3.02673371	      0.36866361	     21.34773081	     -7.16016092	     -7.50125056	    -35.75315832	     -3.13037759	      3.02968193	     10.72025009	    -11.78474198	    -19.18677339	     30.29449761	     90.00000001	      0.00000000	      0.00000000	      1.28965165	    -21.51712107	      6.52892690	     68.59516434	     90.00000001	      0.00000000	      0.00000000
      3.04000000	     20.82424575	      0.79889166	      3.30141520	      0.87754292	      0.94142200	     -0.55488786	      8.74578409	     -2.85432352	    -26.15479313	     44.26609166	    -16.16568374	      0.77258905	     13.58238351	     26.53917765	     -7.50122351	    -16.97132329	      7.16675382	     -2.81413596	     20.72756166	     -2.87378785	      0.36176420	     21.39285414	     -6.94672645	     -7.50122351	    -35.78783550	     -3.09001385	      3.15293754	     10.44989505	    -11.82622768	    -19.52952322	     29.94501869	     90.00000001	      0.00000000	      0.00000000	      1.25163978	    -21.46686283	      6.42845913	     68.52239127	     90.00000001	      0.00000000	      0.00000000
      3.05000000	     20.56520675	      0.85275890	      3.19498812	      0.88134760	      0.94088210	     -0.55595156	      9.38736265	     -2.63090787	    -25.83396731	     42.91518455	    -15.70866719	      0.74901127	     13.58575946	     26.87806496	     -7.50120674	    -17.01856861	      7.40963113	     -2.97265870	     20.57211316	     -3.08146196	      0.35905111	     21.63317062	     -6.83465328	     -7.50120674	    -35.60697811	     -3.20528496	      3.08439719	     10.08708478	    -11.81468256	    -19.67892798	     29.83413341	     90.00000001	      0.00000000	      0.00000000	      1.15822754	    -21.45647626	      6.40539875	     68.55362265	     90.00000001	      0.00000000	      0.00000000
      3.06000000	     20.61984978	      0.71712524	      3.16403313	      0.88549663	      0.94093249	     -0.55689606	      9.50565528	     -2.16589527	    -26.18139055	     41.11151893	    -15.59702584	      0.71753137	     13.35405089	     28.98371044	     -7.50115431	    -17.50967699	      7.28214871	     -3.21878445	     20.21583653	     -3.03362706	      0.35283291	     21.80677597	     -6.26226646	     -7.50115431	    -35.69507615	     -3.09137396	      3.11698058	      9.87939399	    -11.77310121	    -20.65171414	     29.56049659	     90.00000001	      0.00000000	      0.00000000	      1.10383984	    -21.45321480	      6.33017051	     68.57601330	     90.00000001	      0.00000000	      0.00000000
      3.07000000	     20.48104931	      0.70751119	      3.04166606	      0.88945227	      0.94058684	     -0.55779927	      9.87441813	     -1.88386355	    -25.80307823	     39.74324291	    -15.03347223	      0.69365044	     13.38781101	     29.63986951	     -7.50112862	    -17.71746833	      7.37286530	     -3.45473432	     20.00589101	     -3.05513367	      0.34916867	     21.99408176	     -6.07146527	     -7.50112862	    -35.60613975	     -3.15215874	      3.14194363	      9.60928448	    -11.79643188	    -20.93520370	     29.22709048	     90.00000001	      0.00000000	      0.00000000	      1.06214740	    -21.44143389	      6.35207123	     68.56806844	     90.00000001	      0.00000000	      0.00000000
      3.08000000	     20.27508172	      0.77635297	      2.97740999	      0.89333853	      0.94005532	     -0.55886922	     10.33907016	     -1.72639537	    -25.62848980	     38.55231443	    -14.61444677	      0.67286482	     13.46277291	     29.85019339	     -7.50111711	    -17.82385219	      7.61466420	     -3.56027463	     19.85861883	     -3.24665613	      0.34659828	     22.22428872	     -5.99573702	     -7.50111711	    -35.47393368	     -3.25076390	      3.06223083	      9.29432306	    -11.81959096	    -21.07538701	     29.06089119	     90.00000001	      0.00000000	      0.00000000	      1.01259974	    -21.43683031	      6.36572146	     68.60284156	     90.00000001	      0.00000000	      0.00000000
      3.09000000	     20.19289897	      0.76429496	      2.94832708	      0.89739579	      0.93975167	     -0.55991662	     10.55308147	     -1.50693299	    -25.52440031	     37.27933027	    -14.13532206	      0.65064706	     13.46040899	     30.44359125	     -7.50110758	    -18.11542648	      7.66712868	     -3.66111657	     19.61927518	     -3.22749587	      0.34242095	     22.35284549	     -5.85071913	     -7.50110758	    -35.44620881	     -3.23893401	      3.02462394	      9.00040757	    -11.86574362	    -21.32367158	     28.77721962	     90.00000001	      0.00000000	      0.00000000	      0.98362638	    -21.40924994	      6.40125004	     68.62966471	     90.00000001	      0.00000000	      0.00000000
      3.10000000	     20.04276265	      0.84348092	      2.86549496	      0.90152396	      0.93918900	     -0.56090805	     10.98031790	     -1.53740496	    -25.69335045	     36.57361077	    -13.65596515	      0.63832993	     13.52747150	     30.42917974	     -7.50110307	    -18.27574358	      7.84335707	     -3.83086669	     19.56031174	     -3.23532923	      0.34139184	     22.49850992	     -5.85725968	     -7.50110307	    -35.35138948	     -3.36263393	      2.98580228	      8.62843048	    -11.88092208	    -21.39284439	     28.63605619	     90.00000001	      0.00000000	      0.00000000	      0.89633133	    -21.35721365	      6.41991387	     68.65932603	     90.00000001	      0.00000000	      0.00000000
      3.11000000	     20.25438996	      0.62569144	      2.97262787	      0.90579492	      0.93953758	     -0.56184779	     10.56266022	     -0.95064759	    -25.72067203	     34.76072096	    -13.33471970	      0.60668903	     13.24204473	     31.99925021	     -7.50109441	    -19.00909003	      7.58405147	     -3.65168196	     19.08597491	     -3.12383655	      0.33311310	     22.57494821	     -5.52346135	     -7.50109441	    -35.60683723	     -3.09196010	      2.96662793	      8.51443793	    -11.85866588	    -22.08400089	     28.15439493	     90.00000001	      0.00000000	      0.00000000	      0.92534702	    -21.30734396	      6.55561162	     68.66648294	     90.00000001	      0.00000000	      0.00000000
      3.12000000	     20.25766093	      0.57970492	      3.05953548	      0.91007678	      0.93929984	     -0.56289643	     10.57966727	     -0.73348782	    -25.99426722	     33.69855301	    -13.06307793	      0.58815070	     13.07334553	     32.63929149	     -7.50107249	    -19.37995496	      7.55776366	     -3.66779081	     18.93429172	     -3.13331373	      0.33046573	     22.78213511	     -5.29041917	     -7.50107249	    -35.65096166	     -2.99886847	      2.90315529	      8.25522221	    -11.81110725	    -22.80415817	     27.86962137	     90.00000001	      0.00000000	      0.00000000	      0.91890068	    -21.26952390	      6.65199461	     68.69430980	     90.00000001	      0.00000000	      0.00000000
